<?xml version="1.0" encoding="UTF-8"?>
<svg xmlns="http://www.w3.org/2000/svg" width="156" height="43" viewBox="0 0 156 43" fill="none">
  <g id="logo">
    <g id="Vector">
      <path fill-rule="evenodd" clip-rule="evenodd" d="M13.1951 0.011042H30.0562C32.6842 0.011042 34.8263 2.16422 34.8263 4.78117V38.0064C34.8263 40.6344 32.6731 42.7765 30.0562 42.7765H4.78117C2.15318 42.7765 0.011042 40.6233 0.011042 38.0064V12.2455L13.1951 0V0.011042Z" fill="url(#paint0_linear_190_4088)"></path>
      <path d="M21.322 5.05722H8.5796C8.45763 5.05722 8.35876 5.32912 8.35876 5.66452V11.4395C8.35876 11.7749 8.45763 12.0468 8.5796 12.0468H21.322C21.444 12.0468 21.5429 11.7749 21.5429 11.4395V5.66452C21.5429 5.32912 21.444 5.05722 21.322 5.05722Z" fill="white"></path>
      <path d="M26.7326 17.2365H6.18349C5.98835 17.2365 5.83015 17.5084 5.83015 17.8438V23.6187C5.83015 23.9541 5.98835 24.226 6.18349 24.226H26.7326C26.9277 24.226 27.0859 23.9541 27.0859 23.6187V17.8438C27.0859 17.5084 26.9277 17.2365 26.7326 17.2365Z" fill="white"></path>
      <path d="M20.9466 29.4047H6.08412C5.94386 29.4047 5.83015 29.6766 5.83015 30.012V35.787C5.83015 36.1224 5.94386 36.3943 6.08412 36.3943H20.9466C21.0868 36.3943 21.2006 36.1224 21.2006 35.787V30.012C21.2006 29.6766 21.0868 29.4047 20.9466 29.4047Z" fill="white"></path>
      <path fill-rule="evenodd" clip-rule="evenodd" d="M0.011042 12.2566L13.1951 0.011042C12.6872 2.99237 12.3118 5.99578 12.2234 9.02128C12.1462 11.6493 10.1917 12.0468 7.6852 11.9805C5.17868 11.9143 0.011042 12.2676 0.011042 12.2676V12.2566Z" fill="#001AC1"></path>
      <path fill-rule="evenodd" clip-rule="evenodd" d="M13.1951 0.011042L10.8542 5.52098C9.30837 9.15378 9.71692 9.31941 6.38225 10.3242L0 12.2566L13.1841 0.011042L13.1951 0.011042Z" fill="#73D0FF"></path>
      <path d="M30.9285 5.05722H24.204C24.1369 5.05722 24.0825 5.32912 24.0825 5.66452V11.4395C24.0825 11.7749 24.1369 12.0468 24.204 12.0468H30.9285C30.9956 12.0468 31.05 11.7749 31.05 11.4395V5.66452C31.05 5.32912 30.9956 5.05722 30.9285 5.05722Z" fill="white"></path>
      <path fill-rule="evenodd" clip-rule="evenodd" d="M31.9999 4.13823C31.3657 4.41036 30.4778 5.53777 29.9578 6.08203C29.6153 6.43192 29.3617 6.70405 28.9938 7.0669C28.7402 7.32607 28.2709 8.07768 27.8396 7.75371C27.383 7.41678 26.4064 5.74511 25.4678 6.75589C24.5418 7.75371 25.9497 8.7904 26.419 9.26988C28.3597 11.2526 28.0299 10.9675 30.7442 8.20726C31.4038 7.53341 32.0506 6.87252 32.6848 6.17275C32.9765 5.86174 33.4458 5.47298 33.2049 4.74729C33.0526 4.29373 32.558 3.89201 31.9872 4.13823H31.9999Z" fill="#2746FF"></path>
    </g>
    <g id="iqbtool">
      <path d="M48.9147 34.8904V14.536H52.8769V34.8904H48.9147ZM50.9157 11.3954C50.2266 11.3954 49.6347 11.1657 49.14 10.7063C48.6541 10.2381 48.4111 9.68149 48.4111 9.03658C48.4111 8.38284 48.6541 7.82627 49.14 7.36688C49.6347 6.89866 50.2266 6.66455 50.9157 6.66455C51.6048 6.66455 52.1922 6.89866 52.6781 7.36688C53.1729 7.82627 53.4202 8.38284 53.4202 9.03658C53.4202 9.68149 53.1729 10.2381 52.6781 10.7063C52.1922 11.1657 51.6048 11.3954 50.9157 11.3954Z" fill="#010342"></path>
      <path d="M70.0834 42.5233V31.7233H69.8449C69.6064 32.1562 69.2618 32.6509 68.8113 33.2075C68.3696 33.764 67.76 34.2499 66.9826 34.6651C66.2051 35.0803 65.198 35.288 63.9612 35.288C62.318 35.288 60.8515 34.8683 59.5617 34.0291C58.2807 33.181 57.2736 31.9751 56.5403 30.4114C55.8159 28.8389 55.4537 26.9527 55.4537 24.753C55.4537 22.5532 55.8203 20.6715 56.5536 19.1078C57.2957 17.5441 58.3116 16.347 59.6014 15.5166C60.8912 14.6862 62.3533 14.271 63.9877 14.271C65.251 14.271 66.267 14.483 67.0356 14.907C67.813 15.3222 68.4137 15.8081 68.8378 16.3647C69.2707 16.9213 69.6064 17.4116 69.8449 17.8356H70.1762V14.536H74.0456V42.5233H70.0834ZM64.8358 31.9088C65.9754 31.9088 66.9384 31.6084 67.7246 31.0077C68.5197 30.3981 69.1205 29.5544 69.5269 28.4766C69.9421 27.3988 70.1497 26.1444 70.1497 24.7132C70.1497 23.2997 69.9465 22.0629 69.5401 21.0028C69.1337 19.9426 68.5374 19.1166 67.7511 18.5247C66.9649 17.9328 65.9931 17.6369 64.8358 17.6369C63.6432 17.6369 62.6493 17.9461 61.8542 18.5645C61.0591 19.1829 60.4584 20.0266 60.052 21.0955C59.6544 22.1645 59.4557 23.3704 59.4557 24.7132C59.4557 26.0737 59.6588 27.2973 60.0652 28.3839C60.4716 29.4705 61.0723 30.3319 61.8674 30.9679C62.6714 31.5952 63.6608 31.9088 64.8358 31.9088Z" fill="#010342"></path>
      <path d="M77.825 34.8904V7.75118H81.7872V17.8356H82.0257C82.2554 17.4116 82.5867 16.9213 83.0196 16.3647C83.4525 15.8081 84.0532 15.3222 84.8218 14.907C85.5904 14.483 86.6064 14.271 87.8697 14.271C89.5129 14.271 90.9794 14.6862 92.2692 15.5166C93.559 16.347 94.5706 17.5441 95.3038 19.1078C96.0459 20.6715 96.417 22.5532 96.417 24.753C96.417 26.9527 96.0503 28.8389 95.3171 30.4114C94.5838 31.9751 93.5767 33.181 92.2957 34.0291C91.0147 34.8683 89.5526 35.288 87.9094 35.288C86.6726 35.288 85.6611 35.0803 84.8748 34.6651C84.0974 34.2499 83.4878 33.764 83.0461 33.2075C82.6044 32.6509 82.2643 32.1562 82.0257 31.7233H81.6945V34.8904H77.825ZM81.7077 24.7132C81.7077 26.1444 81.9153 27.3988 82.3305 28.4766C82.7457 29.5544 83.3465 30.3981 84.1327 31.0077C84.919 31.6084 85.882 31.9088 87.0216 31.9088C88.2054 31.9088 89.1948 31.5952 89.9899 30.9679C90.785 30.3319 91.3858 29.4705 91.7922 28.3839C92.2074 27.2973 92.415 26.0737 92.415 24.7132C92.415 23.3704 92.2118 22.1645 91.8054 21.0955C91.4079 20.0266 90.8071 19.1829 90.0032 18.5645C89.2081 17.9461 88.2142 17.6369 87.0216 17.6369C85.8731 17.6369 84.9013 17.9328 84.1062 18.5247C83.32 19.1166 82.7237 19.9426 82.3173 21.0028C81.9109 22.0629 81.7077 23.2997 81.7077 24.7132Z" fill="#010342"></path>
      <path d="M108.502 14.536V17.7164H97.3837V14.536H108.502ZM100.365 9.65941H104.327V28.9139C104.327 29.6825 104.442 30.2612 104.672 30.6499C104.902 31.0298 105.198 31.2904 105.56 31.4317C105.931 31.5643 106.333 31.6305 106.766 31.6305C107.084 31.6305 107.362 31.6084 107.601 31.5643C107.839 31.5201 108.025 31.4848 108.157 31.4583L108.873 34.7314C108.643 34.8197 108.316 34.9081 107.892 34.9964C107.468 35.0936 106.938 35.1466 106.302 35.1554C105.26 35.1731 104.288 34.9876 103.387 34.5989C102.486 34.2102 101.757 33.6094 101.2 32.7967C100.644 31.9839 100.365 30.9635 100.365 29.7355V9.65941Z" fill="#010342"></path>
      <path d="M119.374 35.3012C117.466 35.3012 115.8 34.8639 114.378 33.9893C112.956 33.1147 111.852 31.8911 111.065 30.3186C110.279 28.7461 109.886 26.9085 109.886 24.806C109.886 22.6945 110.279 20.8482 111.065 19.2668C111.852 17.6854 112.956 16.4575 114.378 15.5829C115.8 14.7083 117.466 14.271 119.374 14.271C121.282 14.271 122.947 14.7083 124.37 15.5829C125.792 16.4575 126.896 17.6854 127.683 19.2668C128.469 20.8482 128.862 22.6945 128.862 24.806C128.862 26.9085 128.469 28.7461 127.683 30.3186C126.896 31.8911 125.792 33.1147 124.37 33.9893C122.947 34.8639 121.282 35.3012 119.374 35.3012ZM119.387 31.9751C120.624 31.9751 121.649 31.6482 122.462 30.9944C123.274 30.3407 123.875 29.4705 124.264 28.3839C124.661 27.2973 124.86 26.1002 124.86 24.7927C124.86 23.4941 124.661 22.3014 124.264 21.2148C123.875 20.1193 123.274 19.2403 122.462 18.5777C121.649 17.9151 120.624 17.5838 119.387 17.5838C118.142 17.5838 117.108 17.9151 116.286 18.5777C115.474 19.2403 114.868 20.1193 114.471 21.2148C114.082 22.3014 113.888 23.4941 113.888 24.7927C113.888 26.1002 114.082 27.2973 114.471 28.3839C114.868 29.4705 115.474 30.3407 116.286 30.9944C117.108 31.6482 118.142 31.9751 119.387 31.9751Z" fill="#010342"></path>
      <path d="M139.993 35.3012C138.085 35.3012 136.419 34.8639 134.997 33.9893C133.575 33.1147 132.47 31.8911 131.684 30.3186C130.898 28.7461 130.505 26.9085 130.505 24.806C130.505 22.6945 130.898 20.8482 131.684 19.2668C132.47 17.6854 133.575 16.4575 134.997 15.5829C136.419 14.7083 138.085 14.271 139.993 14.271C141.901 14.271 143.566 14.7083 144.989 15.5829C146.411 16.4575 147.515 17.6854 148.302 19.2668C149.088 20.8482 149.481 22.6945 149.481 24.806C149.481 26.9085 149.088 28.7461 148.302 30.3186C147.515 31.8911 146.411 33.1147 144.989 33.9893C143.566 34.8639 141.901 35.3012 139.993 35.3012ZM140.006 31.9751C141.243 31.9751 142.268 31.6482 143.08 30.9944C143.893 30.3407 144.494 29.4705 144.883 28.3839C145.28 27.2973 145.479 26.1002 145.479 24.7927C145.479 23.4941 145.28 22.3014 144.883 21.2148C144.494 20.1193 143.893 19.2403 143.08 18.5777C142.268 17.9151 141.243 17.5838 140.006 17.5838C138.76 17.5838 137.727 17.9151 136.905 18.5777C136.092 19.2403 135.487 20.1193 135.09 21.2148C134.701 22.3014 134.507 23.4941 134.507 24.7927C134.507 26.1002 134.701 27.2973 135.09 28.3839C135.487 29.4705 136.092 30.3407 136.905 30.9944C137.727 31.6482 138.76 31.9751 140.006 31.9751Z" fill="#010342"></path>
      <path d="M156 7.75118V34.8904H152.038V7.75118H156Z" fill="#010342"></path>
    </g>
  </g>
  <defs>
    <linearGradient id="paint0_linear_190_4088" x1="17.4187" y1="0.011042" x2="17.4187" y2="42.7876" gradientUnits="userSpaceOnUse">
      <stop stop-color="#293FFF"></stop>
      <stop offset="1" stop-color="#00B3FF"></stop>
    </linearGradient>
  </defs>
</svg>
